<svg id="Isolation_Mode" xmlns="http://www.w3.org/2000/svg" width="170" height="60" viewBox="0 0 170 60"><style>.st0{fill-rule:evenodd;clip-rule:evenodd;fill:#DB1F28;} .st1{fill-rule:evenodd;clip-rule:evenodd;fill:#282828;}</style><path class="st0" d="M3 31.8c-.8-.5-.5-.8 0-1.2 6.4-4.5 14.7-12 19.3-22.3C25.2 2.2 30.5 2 33.4 3c2.9 1.1 6.9 4.1 4.5 11.5-2.3 7.2-9.5 14.1-19.7 17.4-9.5 3.1-14.4.3-15.2-.1z"/><path class="st1" d="M68.5 41.5c-2.5 0-3.5 2.3-3.6 3.8h6.8c0-1-.4-3.8-3.2-3.8zm99-2.2h-5.6v11.8c0 2.6.5 5.6 5 4.2.1.7.3 1.3.3 1.5-.7.2-7.2 2.7-7.2-5.7V39.3h-3.2v-1.7h3.2v-3.4l1.9-.7v4.1h5.6v1.7zM152 34c-.9 0-1.6-.8-1.6-1.7 0-.9.7-1.7 1.6-1.7.9 0 1.6.8 1.6 1.7-.1.9-.8 1.7-1.6 1.7zm.9 22.9H151V37.6h1.9v19.3zm-9.9 0c-.1-.6-.1-2.7-.1-3.8-.9 2.3-3.4 4.3-6.9 4.3-4 0-8.3-3.2-8.3-9.9 0-5.3 3.3-10.2 8.6-10.2 4.5 0 6.2 3.1 6.4 3.5V28.6h1.9v21.8c0 1.1.1 4.9.1 6.5H143zm-18.5-9.8h-14.1c0 7.7 5.4 8.5 7.2 8.5 1.8 0 3.8-.2 5.4-1.1.1.4.5 1.2.6 1.6-1.2.8-4.2 1.3-5.9 1.3-5.2 0-9.1-3.5-9.1-9.9 0-3.7 1.9-10.1 8.6-10.1 6.2-.1 7.6 6 7.3 9.7zm-17.8-9.7v1.9c-3.8-.7-6 3.1-6 6.8V57h-2V46.1c0-7.5 0-5.4-.1-8.3h1.8V42c1.5-5 5.7-4.8 6.3-4.6zM79.3 47.5c0-5.7 3.8-10.2 10-10.2 2 0 4 .6 4.9 1.2-.6 1.5-.7 1.7-.7 1.7-.7-.4-2.3-1.2-4.4-1.2-4.8 0-7.9 3.4-7.9 8.5 0 4.7 3 8.1 7.4 8.1 3 0 4.5-.8 4.9-1.1l.6 1.5c-2.8 1.3-4.6 1.3-5.5 1.3-4 .1-9.3-2.5-9.3-9.8zm-4.1 4.4l.8 3.9c-2.7 1-4.6 1.2-6.4 1.2-1.8 0-10.2-.3-10.2-9.5 0-6.8 5.2-9.9 9.4-9.9 1.1 0 9.5.4 8 11.6H65c.2 2.3 2.8 4.9 10.2 2.7zm-28.1-1.5v-8h-2.4V38h2.4v-3.4l5.7-1.6v5h4.1v4.3h-4.1v6.9c0 1.4 0 3.8 4 2.9v4.5c-1.5.4-2.7.4-3.3.4-.7.1-6.4.4-6.4-6.6zm-10.6 6.2c0-.3-.2-1.3-.3-2.7-1.3 1.7-2.8 3.1-6 3.1-5.9 0-6.4-6.4-6.4-7v0-12h5.8v9.6c0 1.1-.1 4.8 3 4.8 1 0 2.9-1 2.9-3.4V38.1h5.8v13c0 1.8 0 2.4.1 5.5h-4.9zm-17.6 0h-5.8V38h5.8v18.6zm97.9-17.8c-4.1 0-6 3.7-6.4 6.7h12.1c0-3.2-1.6-6.7-5.7-6.7zm19.5.1c-3.8 0-6.6 3.6-6.6 8.6 0 4.4 2.3 8.3 6.6 8.3 2.7 0 6.4-1.9 6.4-7v-2.5-.3-.1c0-4.9-3.1-7-6.4-7z"/></svg>